<svg width="69" height="72" viewBox="0 0 69 72" fill="none" xmlns="http://www.w3.org/2000/svg">
<g clip-path="url(#clip0_368_125272)">
<path d="M25.85 45.9297H19.5488C18.6476 45.9297 18.0915 47.1596 18.3673 48.0176C18.5251 48.5087 18.61 49.0334 18.61 49.5797C18.61 52.3797 16.34 54.6497 13.54 54.6497C10.74 54.6497 8.47 52.3797 8.47 49.5797C8.47 49.0228 8.561 48.4871 8.72822 47.9857C9.0117 47.1357 8.46504 45.9297 7.56899 45.9297H1.25" stroke="black" stroke-width="2.5" stroke-linecap="round" stroke-linejoin="round"/>
<path d="M25.8496 45.93H32.1508C33.052 45.93 33.6081 44.7001 33.3323 43.8421C33.1745 43.351 33.0896 42.8263 33.0896 42.28C33.0896 39.48 35.3596 37.21 38.1596 37.21C40.9596 37.21 43.2296 39.48 43.2296 42.28C43.2296 42.8368 43.1386 43.3725 42.9714 43.8739C42.6879 44.724 43.2346 45.93 44.1306 45.93H50.4696" stroke="black" stroke-width="2.5" stroke-linecap="round" stroke-linejoin="round"/>
<path d="M25.85 45.9297V52.2309C25.85 53.1321 27.0799 53.6881 27.9379 53.4124C28.429 53.2546 28.9537 53.1697 29.5 53.1697C32.3 53.1697 34.57 55.4397 34.57 58.2397C34.57 61.0397 32.3 63.3097 29.5 63.3097C28.9431 63.3097 28.4075 63.2187 27.906 63.0515C27.056 62.768 25.85 63.3146 25.85 64.2107V69.5497C25.85 70.102 25.4023 70.5497 24.85 70.5497H2.25C1.69772 70.5497 1.25 70.102 1.25 69.5497V45.9497" stroke="black" stroke-width="2.5" stroke-linecap="round" stroke-linejoin="round"/>
<path d="M1.25 45.9301V22.3301C1.25 21.7778 1.69772 21.3301 2.25 21.3301H24.85C25.4023 21.3301 25.85 21.7778 25.85 22.3301V27.6313C25.85 28.5325 24.6201 29.0885 23.7621 28.8128C23.271 28.655 22.7463 28.5701 22.2 28.5701C19.4 28.5701 17.13 30.8401 17.13 33.6401C17.13 36.4401 19.4 38.7101 22.2 38.7101C22.7569 38.7101 23.2925 38.6191 23.794 38.4519C24.644 38.1684 25.85 38.715 25.85 39.6111V45.9501" stroke="black" stroke-width="2.5" stroke-linecap="round" stroke-linejoin="round"/>
<path d="M50.4596 45.9297V69.5297C50.4596 70.082 50.0119 70.5297 49.4596 70.5297H25.8496" stroke="black" stroke-width="2.5" stroke-linecap="round" stroke-linejoin="round"/>
<path d="M58.4994 1L35.4994 9.5L38.5 16L36.4994 17C31.2994 17.8 30.9994 22.6667 31.4994 25C33.4994 28.6 37.6661 27.5 39.4994 26.5L41.4994 26L43.9994 32.5L50.9994 30L49.9994 28C47.9994 22.8 50.8328 20.8333 52.4994 20.5C57.2994 18.9 58.8328 22.8333 58.9994 25L59.9994 26.5L66.9994 24L58.4994 1Z" fill="#DA291C"/>
<path d="M35.5503 9.59943L37.6873 15.5299C37.9927 16.3774 37.0263 17.3133 36.1258 17.3406C35.6082 17.3562 35.0842 17.4529 34.5703 17.6394C31.9403 18.5794 30.5703 21.4894 31.5203 24.1194C32.4603 26.7494 35.3703 28.1194 38.0003 27.1694C38.5106 26.9828 38.9745 26.7223 39.3832 26.4043C40.0939 25.8513 41.4369 25.9586 41.7422 26.8058L43.5413 31.7987C43.7285 32.3183 44.3015 32.5877 44.8211 32.4005L49.8145 30.6014C50.6616 30.2961 50.769 28.953 50.216 28.2424C49.898 27.8337 49.6375 27.3698 49.4509 26.8595C48.5009 24.2295 49.8709 21.3195 52.5009 20.3795C55.1309 19.4295 58.0409 20.7995 58.9809 23.4295C59.1674 23.9434 59.2641 24.4674 59.2797 24.985C59.307 25.8855 60.2428 26.8519 61.0904 26.5465L67.0209 24.4095M35.5391 9.58982L57.7482 1.58876C58.2678 1.40157 58.8408 1.67104 59.028 2.19063L67.0291 24.3998" stroke="black" stroke-width="2.5" stroke-linecap="round" stroke-linejoin="round"/>
</g>
<defs>
<clipPath id="clip0_368_125272">
<rect width="68.28" height="71.78" fill="white"/>
</clipPath>
</defs>
</svg>
