<svg width="60" height="59" viewBox="0 0 60 59" fill="none"
  xmlns="http://www.w3.org/2000/svg">
  <path d="M34.6684 27.5999L54.0969 8.74577L48.9383 3.80469L29.5098 22.6588L34.6684 27.5999Z" fill="currentColor"/>
  <path d="M21.6422 0H14.7568V19.988H21.6422V0Z" fill="currentColor"/>
  <path d="M60 35.2148H38.3633V41.8775H60V35.2148Z" fill="currentColor"/>
  <path d="M22.9598 48.8352C21.2912 50.562 19.1554 51.3294 16.6859 51.3294C14.2831 51.3294 12.2141 50.498 10.5455 48.8352C8.8769 47.1084 7.94249 45.1257 7.94249 42.8233C7.94249 40.393 8.8769 38.4104 10.5455 36.7476C12.2141 35.0208 14.3499 34.2533 16.6859 34.3172C19.1554 34.2533 21.2245 35.0847 23.0265 36.7476C24.6284 38.3464 25.4961 40.393 25.5628 42.8233C25.4961 45.1257 24.6284 47.1084 22.9598 48.8352ZM28.5663 31.3753C25.2291 28.1775 21.2245 26.6426 16.6859 26.6426C12.1473 26.6426 8.20947 28.1775 4.93903 31.3753C1.60185 34.5731 0 38.4104 0 42.8233C0 47.2363 1.60185 51.1376 4.93903 54.2074C8.14272 57.4052 12.0806 59.0041 16.6859 59.0041C21.2245 59.0041 25.2291 57.4052 28.5663 54.2074C31.8367 51.0736 33.4385 47.2363 33.4385 42.8233C33.4385 38.4104 31.8367 34.5731 28.5663 31.3753Z" fill="currentColor"/>
</svg>
