<svg width="80" height="80" viewBox="0 0 80 80" fill="none" xmlns="http://www.w3.org/2000/svg">
<path d="M58.1797 18.6924H59.7131" stroke="black" stroke-width="2.23944" stroke-linecap="round" stroke-linejoin="round"/>
<path d="M64.3496 18.6924H65.8788" stroke="black" stroke-width="2.23944" stroke-linecap="round" stroke-linejoin="round"/>
<path d="M62.0312 22.549V21.0156" stroke="black" stroke-width="2.23944" stroke-linecap="round" stroke-linejoin="round"/>
<path d="M62.0312 16.3693V14.8359" stroke="black" stroke-width="2.23944" stroke-linecap="round" stroke-linejoin="round"/>
<path d="M17.7617 17.0304V14.1382" stroke="black" stroke-width="2.23944" stroke-linecap="round" stroke-linejoin="round"/>
<path d="M17.7617 7.89224V5" stroke="black" stroke-width="2.23944" stroke-linecap="round" stroke-linejoin="round"/>
<path d="M23.789 11.0171H20.8926" stroke="black" stroke-width="2.23944" stroke-linecap="round" stroke-linejoin="round"/>
<path d="M14.6327 11.0171H11.7363" stroke="black" stroke-width="2.23944" stroke-linecap="round" stroke-linejoin="round"/>
<path d="M40.123 34.3794V62.8572" stroke="black" stroke-width="2.23944" stroke-linecap="round" stroke-linejoin="round"/>
<path d="M47.1929 32.5431L40.2075 28.9361L33.276 32.647C32.5779 33.021 31.7551 32.4309 31.8839 31.6497L33.1555 23.8913L27.4874 18.4434C26.9181 17.8949 27.2214 16.9308 28.0027 16.8103L35.7735 15.6218L39.2018 8.54497C39.5467 7.83438 40.5565 7.82607 40.9139 8.53251L44.4461 15.5595L52.2335 16.6316C53.0189 16.7397 53.3389 17.6996 52.7738 18.2564L47.1846 23.7833L48.5684 31.5209C48.7097 32.2979 47.8952 32.9005 47.1887 32.539L47.1929 32.5431Z" fill="#DA291C" stroke="black" stroke-width="2.23944" stroke-linejoin="round"/>
<path d="M72.0605 62.3253V60.2642" stroke="black" stroke-width="2.23944" stroke-linecap="round" stroke-linejoin="round"/>
<path d="M72.0605 54.0187V51.9575" stroke="black" stroke-width="2.23944" stroke-linecap="round" stroke-linejoin="round"/>
<path d="M77.2528 57.1436H75.1875" stroke="black" stroke-width="2.23944" stroke-linecap="round" stroke-linejoin="round"/>
<path d="M68.9305 57.1436H66.8652" stroke="black" stroke-width="2.23944" stroke-linecap="round" stroke-linejoin="round"/>
<path d="M46.6309 67.0129C49.1824 60.7838 53.6163 53.1169 59.1431 47.2617" stroke="black" stroke-width="2.23944" stroke-linecap="round" stroke-linejoin="round"/>
<path d="M56.0762 42.2417L62.4175 43.6712L64.8236 49.7757C65.0646 50.3907 65.8999 50.453 66.2365 49.8837L69.5692 44.2156L76.0601 43.7585C76.7125 43.7128 77.0325 42.9274 76.6045 42.4329L72.3202 37.5003L73.9242 31.1132C74.0862 30.4691 73.4505 29.9248 72.8479 30.1866L66.8681 32.8045L61.3703 29.3139C60.8177 28.9607 60.1029 29.4095 60.1611 30.066L60.7512 36.6193L55.7479 40.8455C55.2451 41.2693 55.4404 42.0921 56.0762 42.2376V42.2417Z" fill="#DA291C" stroke="black" stroke-width="2.23944" stroke-linejoin="round"/>
<path d="M52.4785 74.9999C55.6575 70.8236 60.3532 66.024 65.5767 62.4087" stroke="black" stroke-width="2.23944" stroke-linecap="round" stroke-linejoin="round"/>
<path d="M8.19336 62.3253V60.2642" stroke="black" stroke-width="2.23944" stroke-linecap="round" stroke-linejoin="round"/>
<path d="M8.19336 54.0187V51.9575" stroke="black" stroke-width="2.23944" stroke-linecap="round" stroke-linejoin="round"/>
<path d="M3 57.1436H5.06529" stroke="black" stroke-width="2.23944" stroke-linecap="round" stroke-linejoin="round"/>
<path d="M11.3223 57.1436H13.3876" stroke="black" stroke-width="2.23944" stroke-linecap="round" stroke-linejoin="round"/>
<path d="M21.1094 47.2578C26.6362 53.1129 31.0702 60.7799 33.6217 67.009" stroke="black" stroke-width="2.23944" stroke-linecap="round" stroke-linejoin="round"/>
<path d="M24.1762 42.2417L17.8349 43.6712L15.4288 49.7757C15.1878 50.3907 14.3526 50.453 14.016 49.8837L10.6832 44.2156L4.19231 43.7585C3.53989 43.7128 3.21992 42.9274 3.64794 42.4329L7.93228 37.5003L6.32825 31.1132C6.16618 30.4691 6.80198 29.9248 7.40453 30.1866L13.3843 32.8045L18.8821 29.3139C19.4348 28.9607 20.1495 29.4095 20.0913 30.066L19.5013 36.6193L24.5045 40.8455C25.0073 41.2693 24.812 42.0921 24.1762 42.2376V42.2417Z" fill="#DA291C" stroke="black" stroke-width="2.23944" stroke-linejoin="round"/>
<path d="M14.6699 62.4087C19.8934 66.024 24.5933 70.8236 27.7681 74.9999" stroke="black" stroke-width="2.23944" stroke-linecap="round" stroke-linejoin="round"/>
</svg>
