<svg width="80" height="80" viewBox="0 0 80 80" fill="none" xmlns="http://www.w3.org/2000/svg">
<path d="M35.5 61L38.5 54.5L39 53L41 48L41.5 52L42 53L41 59L37.5 69L33.5 74L31 75.5L27.5 71L29 69L35.5 61Z" fill="#DA291C"/>
<path d="M31.6424 75.3964C31.4096 75.3964 31.1764 75.3086 30.9977 75.132L27.8637 72.0434C27.6891 71.8714 27.5906 71.6371 27.5896 71.3926C27.5886 71.1476 27.6856 70.9128 27.8586 70.7398C32.6724 65.9259 35.3404 61.9334 36.7686 56.9404C36.543 57.2303 36.3098 57.5018 36.0699 57.7545C34.4406 59.4721 32.4749 60.3658 30.2285 60.4123C30.155 60.4138 30.081 60.4143 30.0085 60.4143C26.7259 60.4143 24.1508 58.8876 22.5512 55.9889C21.7595 54.5546 21.3986 53.1203 21.2424 52.2888C20.4114 52.1326 18.9766 51.7718 17.5423 50.9801C14.5798 49.3447 13.05 46.6899 13.1194 43.3022C13.1792 40.3846 14.6528 37.9667 17.4984 36.1164C19.2048 35.0067 21.4226 34.1002 24.1222 33.406C21.4226 32.7118 19.2043 31.8053 17.4984 30.6956C14.6528 28.8448 13.1797 26.4269 13.1194 23.5093C13.05 20.1216 14.5793 17.4669 17.5423 15.8315C18.9766 15.0398 20.4109 14.6789 21.2424 14.5227C21.3986 13.6917 21.7595 12.2569 22.5512 10.8226C24.1866 7.86009 26.8408 6.33034 30.229 6.39976C33.1466 6.45948 35.5645 7.93308 37.4153 10.7787C38.525 12.4851 39.4315 14.7029 40.1257 17.4026C40.8199 14.7029 41.7264 12.4846 42.8361 10.7787C44.6864 7.93308 47.1043 6.45999 50.0219 6.39976C53.4091 6.32983 56.0644 7.85958 57.6998 10.8226C58.4915 12.2569 58.8523 13.6912 59.0085 14.5227C59.8395 14.6789 61.2743 15.0398 62.7086 15.8315C65.6716 17.4669 67.2014 20.1216 67.1315 23.5093C67.0718 26.4269 65.5981 28.8448 62.7525 30.6956C61.0461 31.8053 58.8283 32.7118 56.1287 33.406C58.8283 34.1002 61.0467 35.0067 62.7525 36.1164C65.5981 37.9672 67.0718 40.3846 67.1315 43.3027C67.2009 46.6904 65.6716 49.3452 62.7086 50.9806C61.2743 51.7723 59.84 52.1331 59.0085 52.2893C58.8523 53.1203 58.4915 54.5551 57.6998 55.9894C56.1001 58.8882 53.5245 60.4148 50.2424 60.4148C50.1694 60.4148 50.0959 60.4138 50.0224 60.4128C47.7755 60.3669 45.8099 59.4721 44.1801 57.754C43.3557 56.8847 42.6151 55.797 41.9633 54.501C41.5447 57.8203 40.8561 60.7175 39.8531 63.4238C38.2116 67.8538 35.7386 71.6826 32.2927 75.1285C32.1135 75.3076 31.8782 75.3975 31.6429 75.3975L31.6424 75.3964Z" stroke="black" stroke-width="2.5" stroke-miterlimit="10"/>
</svg>
