<svg width="12" height="12" viewBox="0 0 12 12" fill="none" xmlns="http://www.w3.org/2000/svg">
<g clip-path="url(#clip0_688_81596)">
<path d="M6.42188 5.30176V9H5.43408V5.30176H6.42188ZM5.37256 4.33789C5.37256 4.19434 5.42269 4.07585 5.52295 3.98242C5.62321 3.889 5.75765 3.84229 5.92627 3.84229C6.09261 3.84229 6.22591 3.889 6.32617 3.98242C6.42871 4.07585 6.47998 4.19434 6.47998 4.33789C6.47998 4.48145 6.42871 4.59993 6.32617 4.69336C6.22591 4.78678 6.09261 4.8335 5.92627 4.8335C5.75765 4.8335 5.62321 4.78678 5.52295 4.69336C5.42269 4.59993 5.37256 4.48145 5.37256 4.33789Z" fill="#4196A6"/>
<circle cx="6" cy="6" r="5.5" stroke="#4196A6"/>
</g>
<defs>
<clipPath id="clip0_688_81596">
<rect width="12" height="12" fill="white"/>
</clipPath>
</defs>
</svg>
